<?xml version="1.0" standalone="no"?>
<!DOCTYPE svg PUBLIC "-//W3C//DTD SVG 20010904//EN"
 "http://www.w3.org/TR/2001/REC-SVG-20010904/DTD/svg10.dtd">
<svg version="1.0" xmlns="http://www.w3.org/2000/svg"
 width="1024.000000pt" height="1024.000000pt" viewBox="0 0 1024.000000 1024.000000"
 preserveAspectRatio="xMidYMid meet">

<g transform="translate(0.000000,1024.000000) scale(0.100000,-0.100000)"
fill="#000000" stroke="none">
<path d="M7116 8708 c-7 -30 15 -52 43 -43 23 7 28 34 9 53 -19 19 -45 14 -52
-10z"/>
<path d="M4995 8709 c-181 -14 -323 -36 -505 -79 -410 -96 -737 -237 -1090
-471 -221 -146 -373 -273 -575 -480 -215 -220 -253 -268 -509 -649 -39 -58
-121 -205 -182 -327 -92 -182 -123 -257 -173 -410 -112 -350 -150 -552 -170
-903 -9 -146 2 -431 19 -545 5 -33 17 -112 25 -175 9 -63 28 -153 42 -200 14
-47 29 -103 34 -125 4 -22 26 -87 48 -145 45 -121 28 -113 184 -84 87 17 88
17 82 43 -3 14 -30 109 -60 211 -30 102 -64 235 -74 295 -11 61 -27 146 -35
190 -8 44 -16 152 -18 240 -11 483 49 846 211 1273 67 174 96 236 185 390 183
318 374 562 642 822 265 256 644 509 949 634 407 166 709 231 1120 243 296 8
418 -4 770 -72 414 -81 898 -316 1280 -621 141 -113 201 -171 190 -182 -5 -5
-100 -40 -210 -77 -110 -37 -281 -99 -379 -137 -250 -97 -261 -103 -211 -126
14 -6 45 -30 69 -52 l44 -41 199 69 c109 38 263 90 343 116 80 25 160 55 179
66 29 18 31 23 18 33 -18 13 -60 107 -53 115 6 5 98 -67 104 -80 6 -13 41 -9
132 11 97 22 487 85 633 102 134 15 377 7 439 -16 62 -22 108 -74 108 -121 0
-50 -59 -158 -135 -246 -79 -92 -283 -278 -400 -366 -50 -37 -115 -87 -145
-111 -119 -95 -364 -251 -675 -428 -71 -41 -186 -110 -255 -153 -147 -91 -208
-128 -350 -208 -371 -210 -1393 -729 -1715 -871 -104 -46 -226 -102 -270 -123
-200 -98 -889 -387 -1065 -447 -36 -12 -101 -38 -145 -56 -90 -38 -575 -224
-647 -248 -25 -9 -106 -32 -180 -52 -73 -19 -165 -44 -205 -55 -39 -11 -116
-27 -170 -35 -54 -9 -123 -22 -153 -30 -70 -18 -430 -55 -534 -55 -114 0 -201
17 -237 47 -24 20 -29 32 -29 66 1 92 40 154 187 308 l103 107 -25 71 c-13 39
-27 76 -30 81 -9 14 -149 -114 -256 -234 -161 -181 -224 -357 -168 -473 63
-130 245 -179 581 -155 369 26 837 131 1273 287 72 26 177 62 235 82 58 19
182 67 275 107 94 40 220 90 280 111 61 21 135 49 165 62 30 14 105 44 165 68
61 24 162 66 225 95 63 28 160 70 215 92 99 39 175 74 685 316 260 123 1002
499 1130 572 36 21 94 52 130 70 85 43 624 349 720 410 41 26 116 69 165 95
150 82 502 302 599 376 473 360 724 613 829 836 62 133 47 238 -44 317 -102
87 -340 128 -611 105 -98 -9 -501 -70 -595 -91 l-51 -12 -138 133 c-252 242
-555 447 -889 599 -332 153 -699 254 -1035 287 -36 3 -78 8 -95 10 -71 10
-410 13 -520 4z m-265 -90 c0 -6 -4 -7 -10 -4 -5 3 -10 11 -10 16 0 6 5 7 10
4 6 -3 10 -11 10 -16z m720 -44 c0 -14 -4 -25 -9 -25 -12 0 -23 29 -15 41 10
18 24 9 24 -16z m-203 -27 c-3 -8 -6 -5 -6 6 -1 11 2 17 5 13 3 -3 4 -12 1
-19z m-487 2 c0 -5 -5 -10 -11 -10 -5 0 -7 5 -4 10 3 6 8 10 11 10 2 0 4 -4 4
-10z m1542 -165 c-3 -20 -7 -23 -18 -14 -11 9 -11 15 -3 25 18 21 27 17 21
-11z m588 -160 c0 -8 -4 -15 -10 -15 -5 0 -10 7 -10 15 0 8 5 15 10 15 6 0 10
-7 10 -15z m-3810 -460 c0 -25 -23 -35 -35 -15 -10 16 2 40 20 40 9 0 15 -9
15 -25z m4614 -191 c9 -22 -3 -32 -14 -14 -12 19 -12 30 -1 30 5 0 12 -7 15
-16z m-4805 -69 c0 -5 -4 -3 -9 5 -5 8 -9 22 -9 30 0 16 17 -16 18 -35z m-789
-1245 c0 -5 -4 -10 -10 -10 -5 0 -10 5 -10 10 0 6 5 10 10 10 6 0 10 -4 10
-10z m-180 -674 c0 -3 -4 -8 -10 -11 -5 -3 -10 -1 -10 4 0 6 5 11 10 11 6 0
10 -2 10 -4z m3377 -548 c-3 -7 -5 -2 -5 12 0 14 2 19 5 13 2 -7 2 -19 0 -25z
m-403 -164 c9 -22 -3 -32 -14 -14 -12 19 -12 30 -1 30 5 0 12 -7 15 -16z
m-2889 -434 c3 -5 1 -10 -4 -10 -6 0 -11 5 -11 10 0 6 2 10 4 10 3 0 8 -4 11
-10z"/>
<path d="M7620 8372 c-54 -17 -68 -85 -25 -127 32 -33 68 -32 94 1 23 29 27
64 11 94 -11 20 -58 39 -80 32z"/>
<path d="M2465 8304 c-22 -2 -83 -11 -135 -20 -306 -49 -457 -130 -532 -282
-29 -59 -33 -77 -36 -168 -5 -116 14 -197 70 -309 48 -94 180 -283 252 -360
76 -80 61 -84 141 39 l45 68 -68 73 c-150 160 -232 313 -240 447 -4 70 -2 83
23 134 32 66 75 99 183 145 187 78 366 99 699 80 218 -12 218 -12 233 9 8 12
27 36 43 55 26 32 35 55 20 55 -5 1 -57 7 -118 15 -108 15 -501 27 -580 19z"/>
<path d="M5139 8011 c-34 -34 -39 -44 -39 -86 0 -40 5 -52 34 -81 49 -49 90
-47 145 7 58 58 52 113 -19 173 -44 37 -75 34 -121 -13z"/>
<path d="M5717 7919 c-39 -30 -37 -73 6 -99 41 -25 43 -25 72 5 29 28 32 55 8
83 -28 31 -56 35 -86 11z"/>
<path d="M4610 7910 c-27 -27 -23 -67 11 -92 31 -24 73 -11 91 27 10 22 8 30
-9 53 -26 35 -65 40 -93 12z"/>
<path d="M6125 7795 c-37 -36 -34 -86 6 -119 49 -42 105 -32 134 24 43 84 -73
163 -140 95z"/>
<path d="M4144 7790 c-64 -25 -86 -124 -39 -174 35 -38 101 -37 138 2 48 50
43 113 -13 153 -33 23 -61 29 -86 19z"/>
<path d="M6574 7665 c-16 -41 23 -83 62 -68 19 7 27 39 14 63 -13 24 -68 28
-76 5z"/>
<path d="M3646 7478 c-23 -32 -20 -71 7 -95 38 -35 56 -36 88 -4 36 36 36 51
3 90 -32 38 -75 42 -98 9z"/>
<path d="M5115 7448 c-170 -11 -397 -56 -565 -112 -444 -147 -800 -410 -1094
-809 -172 -234 -330 -582 -381 -843 -82 -423 -71 -722 42 -1104 20 -69 38
-126 39 -128 3 -5 213 70 469 168 127 48 241 91 255 95 86 26 665 278 886 386
67 32 125 59 130 59 34 0 1325 644 1497 747 34 20 113 63 176 95 185 96 581
340 581 359 0 18 -120 188 -194 276 -347 413 -778 671 -1289 772 -203 40 -363
52 -552 39z m-160 -107 c3 -5 1 -12 -4 -15 -5 -3 -11 1 -15 9 -6 16 9 21 19 6z
m205 -125 c0 -25 -12 -46 -25 -46 -19 0 -27 17 -20 40 7 23 45 28 45 6z m-371
-10 c7 -8 15 -47 20 -88 5 -41 14 -83 21 -95 14 -22 68 -33 161 -33 47 0 47 0
51 -37 3 -21 4 -39 3 -41 -2 -2 -36 -5 -76 -8 -99 -7 -111 -10 -137 -34 -18
-17 -22 -32 -22 -83 0 -73 -9 -89 -46 -95 -40 -5 -54 20 -54 98 0 99 -8 106
-130 115 l-100 7 0 38 0 37 53 7 c28 3 73 6 98 6 42 0 46 2 62 36 10 20 20 63
23 97 3 34 7 68 10 75 5 16 49 15 63 -2z m891 -26 c0 -5 -4 -10 -10 -10 -5 0
-10 5 -10 10 0 6 5 10 10 10 6 0 10 -4 10 -10z m-305 -70 c12 -13 15 -27 11
-45 -12 -46 -52 -45 -83 1 -11 17 -10 23 3 42 19 27 45 28 69 2z m-1135 -80
c0 -11 -2 -20 -5 -20 -2 0 -9 9 -15 20 -9 16 -8 20 5 20 8 0 15 -9 15 -20z
m1825 -45 c0 -13 -8 -21 -22 -23 -17 -3 -23 2 -23 16 0 10 3 22 7 26 13 13 38
1 38 -19z m274 -141 c12 -15 21 -32 21 -39 0 -24 -41 -65 -65 -65 -26 0 -65
42 -65 69 0 59 72 81 109 35z m-2029 -23 c16 -31 12 -59 -12 -75 -42 -30 -85
24 -58 73 14 27 56 27 70 2z m1608 -15 c6 -27 -6 -46 -23 -40 -15 6 -21 45 -8
58 11 10 28 1 31 -18z m-358 -38 c38 -41 15 -108 -37 -108 -27 0 -73 44 -73
69 0 56 71 81 110 39z m-1480 -54 c0 -24 -14 -32 -25 -14 -9 14 4 52 16 45 5
-4 9 -17 9 -31z m1140 -99 c9 -11 10 -19 2 -27 -14 -14 -32 -1 -32 23 0 23 13
25 30 4z m971 -44 c32 -33 37 -65 13 -99 -34 -49 -86 -48 -126 2 -25 30 -22
60 8 95 33 40 66 40 105 2z m445 21 c6 -4 16 -17 23 -30 26 -49 -20 -97 -65
-67 -32 20 -33 68 -2 89 25 18 29 19 44 8z m-2893 -33 c14 -22 2 -49 -22 -49
-26 0 -34 15 -27 46 7 28 32 29 49 3z m589 -84 c8 -19 8 -28 -2 -40 -29 -34
-77 -5 -66 40 9 35 52 35 68 0z m-298 -34 c24 -26 17 -60 -16 -84 l-28 -21
-25 24 c-29 27 -32 56 -8 82 21 23 55 23 77 -1z m1024 -44 c2 -12 -3 -17 -17
-17 -15 0 -21 6 -21 21 0 25 33 22 38 -4z m-318 -17 c0 -5 -4 -10 -10 -10 -5
0 -10 5 -10 10 0 6 5 10 10 10 6 0 10 -4 10 -10z m784 -24 c45 -19 76 -61 76
-103 0 -100 -118 -166 -185 -103 -34 31 -55 72 -55 104 0 31 44 84 85 102 38
17 39 17 79 0z m-1702 -102 c13 -28 5 -49 -25 -68 -20 -13 -57 18 -57 49 0 49
62 63 82 19z m957 -18 c13 -16 4 -46 -14 -46 -19 0 -36 25 -29 44 8 20 28 21
43 2z m1557 -33 c18 -24 17 -53 -3 -75 -21 -23 -32 -23 -60 4 -25 23 -30 57
-11 76 18 18 59 15 74 -5z m-398 -26 c3 -26 1 -28 -25 -25 -22 2 -29 9 -31 31
-3 26 -1 28 25 25 22 -2 29 -9 31 -31z m-904 -3 c9 -8 16 -22 16 -29 0 -14
-26 -45 -37 -45 -11 0 -43 33 -43 43 0 13 30 47 41 47 4 0 15 -7 23 -16z
m-720 -66 c12 -33 2 -58 -23 -58 -21 0 -31 18 -31 55 0 42 40 44 54 3z m-944
-128 c9 -16 8 -22 -6 -27 -18 -7 -35 13 -27 34 7 19 21 16 33 -7z m1798 -78
c3 -18 -1 -22 -22 -22 -19 0 -26 5 -26 18 0 39 43 43 48 4z m-504 -12 c19 -17
37 -44 41 -60 12 -56 -45 -120 -109 -120 -31 0 -81 42 -94 78 -13 39 8 86 50
112 45 28 71 25 112 -10z m1225 6 c14 -16 -1 -56 -20 -56 -12 0 -31 49 -23 61
8 14 30 11 43 -5z m-1649 0 c0 -3 -4 -8 -10 -11 -5 -3 -10 -1 -10 4 0 6 5 11
10 11 6 0 10 -2 10 -4z m-282 -82 c17 -12 22 -25 22 -57 -1 -45 -13 -67 -47
-85 -33 -18 -54 -14 -85 15 -37 35 -36 69 4 110 35 37 70 42 106 17z m1319
-60 c3 -9 -3 -24 -15 -36 -25 -25 -52 -17 -52 15 0 13 3 27 7 30 12 13 54 7
60 -9z m-1982 -4 c11 -17 -5 -32 -21 -19 -8 6 -14 15 -14 20 0 12 27 11 35 -1z
m985 -270 c24 -24 25 -48 4 -78 -29 -42 -104 -13 -104 40 0 52 62 76 100 38z
m-1070 -80 c0 -11 -7 -20 -15 -20 -8 0 -15 9 -15 20 0 11 7 20 15 20 8 0 15
-9 15 -20z m1468 -26 c3 -23 -21 -49 -38 -39 -11 7 -14 48 -3 59 13 13 38 1
41 -20z m-1042 -70 c46 -22 74 -60 74 -101 0 -42 -66 -118 -111 -128 -57 -13
-149 72 -149 135 0 17 13 39 38 62 55 53 89 60 148 32z m738 -60 c24 -9 21
-54 -4 -54 -23 0 -35 22 -26 45 6 17 8 17 30 9z m-436 -206 c7 -7 12 -22 12
-35 0 -18 -6 -23 -24 -23 -28 0 -40 24 -26 51 12 22 21 24 38 7z m-728 -163
c0 -8 -4 -15 -10 -15 -5 0 -10 7 -10 15 0 8 5 15 10 15 6 0 10 -7 10 -15z
m310 -15 c0 -5 -4 -10 -10 -10 -5 0 -10 5 -10 10 0 6 5 10 10 10 6 0 10 -4 10
-10z"/>
<path d="M7714 7357 c-40 -12 -73 -26 -74 -30 -1 -5 36 -57 82 -115 47 -59
124 -164 172 -234 l87 -128 92 72 c51 40 94 73 96 75 16 12 -184 306 -245 361
-33 29 -112 29 -210 -1z"/>
<path d="M3241 7183 c-80 -40 -80 -167 1 -209 26 -13 38 -14 69 -5 111 33 119
173 13 217 -41 17 -41 17 -83 -3z"/>
<path d="M1670 7040 c-25 -25 -25 -45 0 -70 25 -25 42 -25 63 -2 20 22 22 56
5 69 -28 21 -49 22 -68 3z"/>
<path d="M7280 6933 c-38 -49 1 -133 61 -133 31 0 83 54 75 77 -4 8 -6 19 -6
24 0 6 -12 21 -26 34 -36 34 -77 33 -104 -2z"/>
<path d="M2940 6778 c-23 -25 -25 -40 -8 -71 27 -52 66 -60 97 -21 25 32 26
56 5 89 -21 32 -66 33 -94 3z"/>
<path d="M1598 6525 c-10 -22 -9 -29 10 -47 20 -20 22 -20 46 -4 42 27 29 76
-21 76 -15 0 -27 -9 -35 -25z"/>
<path d="M8298 6443 c-64 -56 -95 -90 -89 -97 29 -36 145 -463 170 -627 49
-308 52 -618 11 -904 -24 -160 -101 -478 -153 -631 -114 -331 -325 -706 -571
-1015 -105 -132 -381 -396 -535 -513 -363 -275 -801 -485 -1181 -565 -433 -92
-845 -106 -1226 -41 -463 79 -857 238 -1224 493 -232 162 -333 249 -535 457
-205 211 -423 501 -500 663 -9 20 -21 37 -25 37 -5 0 -51 -11 -102 -25 -51
-14 -103 -25 -115 -25 l-23 0 21 -52 c48 -125 239 -413 405 -613 126 -151 264
-289 419 -420 412 -346 767 -537 1273 -684 617 -179 1377 -155 2018 63 200 68
238 84 409 171 503 257 946 646 1268 1115 453 657 680 1391 654 2113 -4 98
-12 210 -18 250 -32 222 -43 282 -65 386 -14 62 -54 197 -89 300 -81 239 -86
251 -93 250 -4 0 -51 -39 -104 -86z m269 -1775 c-3 -8 -6 -5 -6 6 -1 11 2 17
5 13 3 -3 4 -12 1 -19z m-5952 -1398 c3 -5 -1 -10 -10 -10 -9 0 -13 5 -10 10
3 6 8 10 10 10 2 0 7 -4 10 -10z m5092 -232 c-3 -8 -6 -5 -6 6 -1 11 2 17 5
13 3 -3 4 -12 1 -19z m-277 -350 c0 -12 -1 -19 -3 -17 -1 2 -9 12 -16 22 -12
14 -11 17 3 17 10 0 16 -8 16 -22z m-140 -87 c0 -6 -4 -13 -10 -16 -5 -3 -10
1 -10 9 0 9 5 16 10 16 6 0 10 -4 10 -9z m-116 -36 c3 -8 1 -15 -4 -15 -6 0
-10 7 -10 15 0 8 2 15 4 15 2 0 6 -7 10 -15z m-3718 -182 c-10 -10 -19 5 -10
18 6 11 8 11 12 0 2 -7 1 -15 -2 -18z m3528 -68 c3 -8 1 -15 -4 -15 -6 0 -10
7 -10 15 0 8 2 15 4 15 2 0 6 -7 10 -15z m-114 -85 c0 -5 -4 -10 -10 -10 -5 0
-10 5 -10 10 0 6 5 10 10 10 6 0 10 -4 10 -10z m-2625 -240 c0 -7 -6 -15 -12
-17 -8 -3 -13 4 -13 17 0 13 5 20 13 18 6 -3 12 -11 12 -18z m1275 -28 c0 -21
-2 -24 -10 -12 -13 20 -13 53 0 45 6 -3 10 -18 10 -33z m-670 -32 c0 -5 -4
-10 -10 -10 -5 0 -10 5 -10 10 0 6 5 10 10 10 6 0 10 -4 10 -10z m727 -42 c-3
-8 -6 -5 -6 6 -1 11 2 17 5 13 3 -3 4 -12 1 -19z"/>
<path d="M2723 6388 c-24 -12 -53 -64 -53 -98 0 -54 49 -100 106 -100 41 0 94
59 94 105 0 29 -8 45 -34 71 -36 36 -70 43 -113 22z"/>
<path d="M8847 6262 c-22 -24 -21 -55 1 -75 26 -23 58 -21 76 5 21 29 20 51
-2 71 -24 22 -55 21 -75 -1z"/>
<path d="M7300 5853 c-256 -162 -526 -313 -1170 -652 -246 -130 -735 -370
-975 -479 -121 -54 -263 -120 -315 -145 -161 -78 -683 -291 -1145 -467 -132
-51 -250 -96 -263 -101 l-23 -9 20 -37 c27 -53 68 -103 177 -216 275 -283 547
-464 891 -593 134 -51 189 -64 453 -110 125 -22 357 -29 475 -14 55 7 118 14
140 17 55 6 320 69 386 92 184 63 450 211 629 349 262 203 548 579 692 914 53
122 123 368 142 499 23 153 30 374 17 524 -11 139 -61 466 -70 464 -4 0 -31
-16 -61 -36z m-40 -399 c0 -8 -4 -12 -10 -9 -5 3 -10 10 -10 16 0 5 5 9 10 9
6 0 10 -7 10 -16z m20 -108 c0 -3 -4 -8 -10 -11 -5 -3 -10 -1 -10 4 0 6 5 11
10 11 6 0 10 -2 10 -4z m-110 -72 c0 -8 -4 -14 -10 -14 -5 0 -10 9 -10 21 0
11 5 17 10 14 6 -3 10 -13 10 -21z m-174 -68 c47 -47 48 -100 3 -151 -44 -50
-87 -49 -140 4 -53 52 -54 98 -5 147 26 26 42 34 71 34 29 0 45 -8 71 -34z
m194 -186 c0 -5 -4 -10 -10 -10 -5 0 -10 5 -10 10 0 6 5 10 10 10 6 0 10 -4
10 -10z m-628 -147 c23 -21 23 -55 -1 -77 -40 -36 -87 23 -57 69 19 29 33 31
58 8z m-537 -27 c12 -18 16 -53 16 -149 1 -120 2 -126 22 -133 48 -15 108 -67
143 -124 l37 -60 136 0 c75 0 142 -4 149 -9 8 -5 12 -22 10 -42 l-3 -34 -141
-3 -141 -3 -17 -55 c-21 -66 -77 -133 -135 -158 l-39 -18 -6 -131 c-4 -73 -9
-149 -12 -169 -5 -35 -8 -38 -39 -38 -43 0 -45 9 -45 191 l0 145 -56 18 c-70
22 -122 68 -162 144 l-32 59 -131 5 c-143 6 -151 10 -147 63 l3 30 145 0 145
1 13 41 c22 70 103 135 205 167 15 5 17 21 17 146 l0 140 25 0 c15 0 31 -9 40
-24z m1129 -62 c11 -29 6 -44 -14 -44 -21 0 -40 27 -33 48 7 17 40 15 47 -4z
m-312 -128 c14 -20 8 -53 -12 -71 -18 -17 -21 -17 -45 -1 -31 20 -33 59 -4 80
22 15 48 11 61 -8z m-1442 -57 c0 -24 -23 -21 -28 4 -2 10 3 17 12 17 10 0 16
-9 16 -21z m1570 -135 c0 -8 -4 -14 -10 -14 -5 0 -10 9 -10 21 0 11 5 17 10
14 6 -3 10 -13 10 -21z m-2030 -124 c0 -11 -4 -20 -10 -20 -5 0 -10 9 -10 20
0 11 5 20 10 20 6 0 10 -9 10 -20z m-70 -60 c0 -5 -2 -10 -4 -10 -3 0 -8 5
-11 10 -3 6 -1 10 4 10 6 0 11 -4 11 -10z m-190 -60 c0 -5 -2 -10 -4 -10 -3 0
-8 5 -11 10 -3 6 -1 10 4 10 6 0 11 -4 11 -10z m2025 -95 c33 -32 31 -60 -5
-96 -28 -29 -30 -29 -59 -14 -17 8 -35 24 -41 34 -40 75 45 137 105 76z
m-1240 -45 c11 -18 -5 -31 -21 -16 -8 8 -14 17 -14 20 0 10 28 7 35 -4z
m-1265 -30 c0 -5 -4 -10 -10 -10 -5 0 -10 5 -10 10 0 6 5 10 10 10 6 0 10 -4
10 -10z m-95 -19 c3 -6 -4 -15 -15 -21 -17 -9 -20 -8 -20 10 0 20 24 28 35 11z
m1170 -58 c65 -69 71 -99 25 -126 -17 -10 -37 -31 -45 -47 -30 -57 -78 -61
-109 -8 -10 16 -34 39 -52 50 -19 11 -34 27 -34 36 1 23 123 152 144 152 9 0
41 -26 71 -57z m-722 -20 c49 -40 57 -51 57 -80 0 -27 -6 -37 -40 -58 -27 -17
-42 -35 -48 -57 -7 -27 -14 -34 -40 -36 -27 -3 -33 1 -51 36 -11 21 -36 51
-55 66 -22 16 -36 36 -36 48 0 29 102 128 132 128 13 0 49 -21 81 -47z m-1016
-45 c-3 -8 -6 -5 -6 6 -1 11 2 17 5 13 3 -3 4 -12 1 -19z m412 -59 c20 -33 18
-56 -7 -76 -37 -30 -101 2 -102 51 0 29 29 56 62 56 21 0 33 -8 47 -31z m1670
-36 c12 -23 -4 -53 -29 -53 -23 0 -36 36 -20 55 17 20 37 19 49 -2z m762 7
c22 -13 25 -52 5 -69 -20 -17 -67 -10 -80 11 -7 12 -6 24 4 42 14 27 39 33 71
16z m-1686 -179 c3 -5 1 -12 -5 -16 -5 -3 -10 1 -10 9 0 18 6 21 15 7z m729
-123 c33 -47 6 -118 -46 -118 -32 0 -68 38 -68 72 0 60 81 93 114 46z m-706
-119 c3 -28 -16 -43 -43 -33 -15 6 -21 45 -8 58 16 16 48 1 51 -25z m-518 11
c0 -5 -2 -10 -4 -10 -3 0 -8 5 -11 10 -3 6 -1 10 4 10 6 0 11 -4 11 -10z m220
-40 c0 -5 -2 -10 -4 -10 -3 0 -8 5 -11 10 -3 6 -1 10 4 10 6 0 11 -4 11 -10z
m1465 -85 c0 -28 -29 -25 -33 3 -3 19 0 23 15 20 10 -2 18 -12 18 -23z m-855
-14 c13 -25 13 -27 -6 -45 -34 -35 -75 -5 -59 44 8 26 51 27 65 1z m548 -24
c4 -30 -17 -37 -38 -12 -10 12 -10 18 0 30 18 22 34 14 38 -18z"/>
<path d="M2500 5823 c-30 -38 -24 -92 12 -113 26 -14 29 -13 49 6 25 26 37 97
19 119 -19 23 -56 18 -80 -12z"/>
<path d="M7843 5605 c-39 -17 -67 -67 -58 -104 9 -36 52 -79 86 -86 62 -14
128 65 107 126 -20 59 -81 87 -135 64z"/>
<path d="M2691 5364 c-148 -83 -409 -250 -484 -310 -66 -51 -65 -48 -34 -181
l12 -52 163 109 c89 60 215 142 279 181 173 108 170 104 176 222 2 53 4 97 3
96 -1 0 -53 -29 -115 -65z"/>
<path d="M8980 5278 c-26 -29 -25 -59 3 -86 30 -29 71 -28 91 0 22 31 20 64
-4 88 -26 26 -64 25 -90 -2z"/>
<path d="M1410 5270 c-24 -24 -25 -43 -4 -64 22 -23 60 -20 78 6 20 28 20 43
0 62 -21 22 -50 20 -74 -4z"/>
<path d="M7870 5164 c-33 -38 -2 -114 46 -114 44 0 60 74 24 110 -24 24 -53
26 -70 4z"/>
<path d="M7789 4691 c-48 -48 -38 -125 20 -155 57 -30 131 19 131 87 0 50 -43
97 -90 97 -22 0 -41 -9 -61 -29z"/>
<path d="M2575 4658 c-22 -20 -28 -33 -28 -68 0 -36 5 -48 29 -67 38 -30 65
-29 103 3 39 33 40 69 4 112 -38 43 -73 50 -108 20z"/>
<path d="M7689 4266 c-16 -34 -3 -74 27 -88 46 -21 85 31 65 85 -9 22 -17 27
-46 27 -28 0 -38 -5 -46 -24z"/>
<path d="M8806 3934 c-44 -43 18 -110 64 -69 34 31 24 64 -26 79 -14 4 -28 1
-38 -10z"/>
<path d="M7430 3842 c-75 -76 3 -202 101 -162 39 17 63 62 55 106 -10 49 -35
74 -83 81 -37 5 -46 2 -73 -25z"/>
<path d="M3126 3588 c-25 -36 -20 -91 10 -122 34 -33 58 -33 89 0 34 37 33 78
-4 115 -35 35 -74 38 -95 7z"/>
<path d="M8389 3528 c-7 -17 -27 -51 -45 -74 l-32 -42 30 -28 c39 -37 147
-177 177 -229 40 -69 91 -206 102 -275 24 -145 -28 -242 -156 -289 -131 -49
-177 -54 -535 -52 -354 2 -366 0 -370 -44 -5 -53 15 -65 155 -91 82 -15 152
-19 395 -19 282 0 298 1 370 23 105 34 165 66 227 124 77 74 106 140 111 253
7 164 -51 328 -193 540 -76 116 -182 235 -208 235 -8 0 -21 -14 -28 -32z"/>
<path d="M7177 3402 c-25 -28 -21 -67 9 -91 33 -26 38 -26 64 1 25 28 26 62 0
88 -25 25 -52 26 -73 2z"/>
<path d="M6720 3180 c0 -44 -6 -52 -70 -83 -80 -39 -81 -104 -1 -121 39 -8 45
-14 68 -63 40 -85 90 -85 112 1 10 40 13 44 50 50 44 7 71 28 71 56 0 10 -27
42 -59 71 -33 29 -63 64 -66 78 -10 40 -24 51 -66 51 -39 0 -39 0 -39 -40z"/>
<path d="M3695 3121 c-80 -35 -81 -162 -1 -200 65 -31 146 27 146 105 0 66
-84 121 -145 95z"/>
<path d="M2096 3011 c-44 -48 16 -119 64 -76 25 23 26 49 0 75 -25 25 -42 25
-64 1z"/>
<path d="M6257 2792 c-25 -27 -22 -78 5 -96 31 -22 54 -20 78 6 27 29 25 54
-5 83 -29 30 -56 32 -78 7z"/>
<path d="M4144 2792 c-56 -37 -25 -138 41 -130 60 7 71 94 15 123 -33 17 -40
18 -56 7z"/>
<path d="M4674 2676 c-67 -29 -85 -109 -39 -164 33 -39 67 -47 111 -26 45 21
64 50 64 94 0 45 -23 78 -66 96 -39 16 -32 16 -70 0z"/>
<path d="M5704 2656 c-26 -26 -34 -42 -34 -71 0 -51 53 -105 103 -105 41 0 79
28 97 69 26 63 -31 141 -103 141 -20 0 -40 -11 -63 -34z"/>
<path d="M2524 2541 c-48 -29 -64 -59 -64 -118 0 -44 5 -58 30 -87 36 -41 73
-51 129 -36 110 29 121 202 16 246 -46 19 -74 18 -111 -5z"/>
<path d="M5206 2538 c-22 -31 -20 -51 9 -78 l25 -24 28 21 c15 11 28 31 30 45
6 53 -62 79 -92 36z"/>
<path d="M7190 2151 c-27 -7 -38 -39 -22 -67 7 -13 31 -17 118 -20 60 -2 125
-7 144 -10 55 -8 189 7 206 23 19 19 18 69 -2 77 -21 8 -413 6 -444 -3z"/>
<path d="M3057 2034 c-24 -24 13 -72 42 -55 20 13 9 56 -14 59 -12 2 -24 0
-28 -4z"/>
</g>
</svg>
